<?xml version="1.0" encoding="utf-8"?>
<!-- Generator: Adobe Illustrator 24.1.2, SVG Export Plug-In . SVG Version: 6.00 Build 0)  -->
<svg version="1.1" id="Layer_1" xmlns="http://www.w3.org/2000/svg" xmlns:xlink="http://www.w3.org/1999/xlink" x="0px" y="0px"
	 viewBox="0 0 500 500" style="enable-background:new 0 0 500 500;" xml:space="preserve">
<style type="text/css">
	.st0{fill:#635C26;stroke:#000000;stroke-miterlimit:10;}
	.st1{fill:#4E4E20;}
	.st2{stroke:#000000;stroke-miterlimit:10;}
	.st3{fill:#FFFFFF;stroke:#000000;stroke-miterlimit:10;}
	.st4{fill:#CB2026;}
	.st5{fill:#98CB56;}
	.st6{fill:#EBE71C;}
	.st7{fill:#37B44A;}
	.st8{fill:#4AC6E6;}
	.st9{fill:#33469D;}
	.st10{fill:#B24C9C;}
	.st11{fill:#6C2571;}
	.st12{fill:#D71F26;}
	.st13{fill:#F9ED23;}
	.st14{fill:#4EB748;}
	.st15{fill:#5161AC;}
	.st16{fill:#3F51A3;}
	.st17{fill:#2B2D80;}
	.st18{fill:#232364;}
	.st19{fill:#20154F;}
	.st20{fill:#24ACE3;}
	.st21{fill:#A83293;}
	.st22{fill:#3DC7F4;}
	.st23{fill:#F9A77C;}
	.st24{fill:#276633;}
	.st25{fill:#F7EC08;}
	.st26{fill:#992E1F;}
	.st27{fill:#54B948;stroke:#FFFFFF;stroke-miterlimit:10;}
	.st28{fill:#E4E417;stroke:#FFFFFF;stroke-miterlimit:10;}
	.st29{fill:#168742;stroke:#FFFFFF;stroke-miterlimit:10;}
	.st30{fill:#51C9F1;stroke:#FFFFFF;stroke-miterlimit:10;}
	.st31{fill:#70BF44;stroke:#FFFFFF;stroke-miterlimit:10;}
	.st32{fill:#42499F;stroke:#FFFFFF;stroke-miterlimit:10;}
	.st33{fill:#89171A;stroke:#FFFFFF;stroke-miterlimit:10;}
	.st34{fill:none;stroke:#FFFFFF;stroke-miterlimit:10;}
	.st35{fill:#E9E614;}
	.st36{fill:#FFFFFF;}
	.st37{fill:#ED1C24;}
	.st38{fill:#58B947;}
	.st39{fill:#28B7EA;}
	.st40{fill:#35449B;}
	.st41{fill:#C11D69;}
	.st42{fill:#F5EB18;}
	.st43{fill:#1E5128;}
	.st44{fill:#28246B;}
	.st45{fill:#772A8C;}
</style>
<g>
	<g>
		<rect x="85.56" y="278.81" class="st0" width="76.28" height="32.91"/>
		<path class="st1" d="M91.63,278.81c0,0-4.58,29.69,25.83,29.69s43.86,0,43.86,0v-29.69H91.63z"/>
		<path class="st2" d="M184.03,324.54H63.36c-2.47,0-4.47-2-4.47-4.47v-3.89c0-2.47,2-4.47,4.47-4.47h120.66
			c2.47,0,4.47,2,4.47,4.47v3.89C188.49,322.54,186.49,324.54,184.03,324.54z"/>
		<path class="st2" d="M216.08,278.81H31.31c-7.66,0-13.87-6.21-13.87-13.87v-75.62c0-7.66,6.21-13.87,13.87-13.87h184.78
			c7.66,0,13.87,6.21,13.87,13.87v75.62C229.95,272.6,223.74,278.81,216.08,278.81z"/>
		<path class="st3" d="M212.82,272.59H34.57c-5.23,0-9.47-4.24-9.47-9.47v-71.97c0-5.23,4.24-9.47,9.47-9.47h178.25
			c5.23,0,9.47,4.24,9.47,9.47v71.97C222.29,268.35,218.05,272.59,212.82,272.59z"/>
		<circle class="st4" cx="101.36" cy="275.68" r="2.66"/>
		<g>
			<circle class="st0" cx="123.69" cy="178.7" r="2.66"/>
		</g>
		<circle class="st5" cx="129.42" cy="178.7" r="1.03"/>
		<circle class="st6" cx="108.68" cy="275.68" r="2.66"/>
		<circle class="st7" cx="116.49" cy="275.68" r="2.66"/>
		<circle class="st8" cx="123.64" cy="275.68" r="2.66"/>
		<circle class="st9" cx="130.8" cy="275.68" r="2.66"/>
		<circle class="st10" cx="138.29" cy="275.68" r="2.66"/>
		<circle class="st11" cx="145.78" cy="275.68" r="2.66"/>
		<path class="st12" d="M210.55,191.89H34.97c-1.09,0-1.97-0.88-1.97-1.97v-1.65c0-1.09,0.88-1.97,1.97-1.97h175.59
			c1.09,0,1.97,0.88,1.97,1.97v1.65C212.53,191,211.64,191.89,210.55,191.89z"/>
		<path class="st13" d="M103.7,203.74H35.32c-1.28,0-2.32-1.04-2.32-2.32v-1.94c0-1.28,1.04-2.32,2.32-2.32h68.39
			c1.28,0,2.32,1.04,2.32,2.32v1.94C106.02,202.7,104.98,203.74,103.7,203.74z"/>
		<path class="st14" d="M182.63,203.74h-68.39c-1.28,0-2.32-1.04-2.32-2.32v-1.94c0-1.28,1.04-2.32,2.32-2.32h68.39
			c1.28,0,2.32,1.04,2.32,2.32v1.94C184.96,202.7,183.92,203.74,182.63,203.74z"/>
		<rect x="111.93" y="210.17" class="st15" width="73.03" height="6.59"/>
		<rect x="158.5" y="223.18" class="st16" width="26.45" height="6.59"/>
		<rect x="162.58" y="235.86" class="st17" width="22.54" height="6.59"/>
		<rect x="162.58" y="248.55" class="st18" width="22.71" height="6.59"/>
		<rect x="158.5" y="261.23" class="st19" width="26.95" height="6.59"/>
		<path class="st20" d="M103.59,216.92H35.43c-1.35,0-2.44-1.09-2.44-2.44v-2.04c0-1.35,1.09-2.44,2.44-2.44h68.15
			c1.35,0,2.44,1.09,2.44,2.44v2.04C106.02,215.83,104.93,216.92,103.59,216.92z"/>
		<path class="st21" d="M103.59,229.93H35.43c-1.35,0-2.44-1.09-2.44-2.44v-2.04c0-1.35,1.09-2.44,2.44-2.44h68.15
			c1.35,0,2.44,1.09,2.44,2.44v2.04C106.02,228.84,104.93,229.93,103.59,229.93z"/>
		<path class="st22" d="M103.59,242.95H35.43c-1.35,0-2.44-1.09-2.44-2.44v-2.04c0-1.35,1.09-2.44,2.44-2.44h68.15
			c1.35,0,2.44,1.09,2.44,2.44v2.04C106.02,241.85,104.93,242.95,103.59,242.95z"/>
		<path class="st23" d="M103.59,255.96H35.43c-1.35,0-2.44-1.09-2.44-2.44v-2.04c0-1.35,1.09-2.44,2.44-2.44h68.15
			c1.35,0,2.44,1.09,2.44,2.44v2.04C106.02,254.87,104.93,255.96,103.59,255.96z"/>
		<path class="st24" d="M103.59,268.97H35.43c-1.35,0-2.44-1.09-2.44-2.44v-2.04c0-1.35,1.09-2.44,2.44-2.44h68.15
			c1.35,0,2.44,1.09,2.44,2.44v2.04C106.02,267.88,104.93,268.97,103.59,268.97z"/>
		<path class="st25" d="M206.9,248.55h-12.78c-3.11,0-5.63-2.52-5.63-5.63v-40.14c0-3.11,2.52-5.63,5.63-5.63h12.78
			c3.11,0,5.63,2.52,5.63,5.63v40.14C212.53,246.03,210.01,248.55,206.9,248.55z"/>
		<path class="st26" d="M207.14,268.97h-13.25c-2.98,0-5.39-2.41-5.39-5.39v-4.59c0-2.98,2.41-5.39,5.39-5.39h13.25
			c2.98,0,5.39,2.41,5.39,5.39v4.59C212.53,266.56,210.11,268.97,207.14,268.97z"/>
		<circle class="st27" cx="135.21" cy="244.16" r="23.29"/>
		<g>
			<path class="st28" d="M151.7,227.35l-15.46,17.81l-2.28-24.6c0.42-0.03,0.84-0.04,1.26-0.04
				C141.65,220.52,147.49,223.13,151.7,227.35z"/>
			<path class="st29" d="M144.03,265.36c-2.71,1.11-5.69,1.73-8.81,1.73c-5.24,0-10.08-1.73-13.97-4.66l15-17.27L144.03,265.36z"/>
			<path class="st30" d="M136.24,245.16l-15,17.27c-5.66-4.24-9.32-11.01-9.32-18.63c0-6.83,2.94-12.98,7.64-17.24L136.24,245.16z"
				/>
			<path class="st31" d="M150.65,261.24c-1.94,1.73-4.17,3.13-6.62,4.12l-7.79-20.2L150.65,261.24z"/>
			<path class="st32" d="M136.24,245.16l-16.67-18.6c3.84-3.49,8.85-5.71,14.39-6L136.24,245.16z"/>
			<path class="st33" d="M158.51,243.8c0,6.95-3.04,13.18-7.86,17.44l-14.4-16.08l15.46-17.81
				C155.91,231.56,158.51,237.38,158.51,243.8z"/>
		</g>
		<line class="st34" x1="144.03" y1="264.88" x2="144.03" y2="264.87"/>
	</g>
	<path class="st2" d="M476.41,318.13h-69.79c-3.4,0-6.15-2.75-6.15-6.15V181.61c0-3.4,2.75-6.15,6.15-6.15h69.79
		c3.4,0,6.15,2.75,6.15,6.15v130.37C482.56,315.37,479.81,318.13,476.41,318.13z"/>
	<path class="st3" d="M472.83,311.91H410.2c-3.4,0-6.15-2.75-6.15-6.15V187.82c0-3.4,2.75-6.15,6.15-6.15h62.64
		c3.4,0,6.15,2.75,6.15,6.15v117.94C478.98,309.16,476.23,311.91,472.83,311.91z"/>
	<path class="st35" d="M365.18,260.01v2.44c0,3.24-2.62,5.86-5.87,5.86h-82.42c-3.23,0-5.86-2.62-5.86-5.86v-2.44
		c0-3.23,2.62-5.86,5.86-5.86h82.42C362.55,254.15,365.18,256.77,365.18,260.01z"/>
	<path class="st2" d="M370.54,175.46H266.23c-4.95,0-8.95,4-8.95,8.95v124.76c0,4.95,4,8.95,8.95,8.95h104.31
		c4.94,0,8.95-4,8.95-8.95V184.41C379.49,179.46,375.48,175.46,370.54,175.46z M373.69,302.41c0,4.94-4,8.95-8.95,8.95h-92.71
		c-4.95,0-8.97-4.02-8.97-8.95V191.18c0-4.95,4.02-8.95,8.97-8.95h92.71c4.95,0,8.95,4,8.95,8.95V302.41z"/>
	<path class="st36" d="M373.69,191.18v111.22c0,4.94-4,8.95-8.95,8.95h-92.71c-4.95,0-8.97-4.02-8.97-8.95V191.18
		c0-4.95,4.02-8.95,8.97-8.95h92.71C369.69,182.23,373.69,186.23,373.69,191.18z"/>
	<path class="st37" d="M361.75,203.74h-87.3c-1.89,0-3.43-1.53-3.43-3.43v-7.8c0-1.89,1.53-3.43,3.43-3.43h87.3
		c1.89,0,3.43,1.53,3.43,3.43v7.8C365.18,202.21,363.64,203.74,361.75,203.74z"/>
	<path class="st35" d="M361.75,222.01h-87.3c-1.89,0-3.43-1.53-3.43-3.43v-7.8c0-1.89,1.53-3.43,3.43-3.43h87.3
		c1.89,0,3.43,1.53,3.43,3.43v7.8C365.18,220.48,363.64,222.01,361.75,222.01z"/>
	<path class="st38" d="M314.78,235.12v26.79c0,3.56-2.88,6.44-6.44,6.44h-30.89c-3.55,0-6.43-2.88-6.43-6.44v-26.79
		c0-3.56,2.88-6.44,6.43-6.44h30.89C311.9,228.68,314.78,231.56,314.78,235.12z"/>
	<path class="st38" d="M469.76,210.19v33.93c0,4.51-3.65,8.16-8.16,8.16h-39.12c-4.49,0-8.14-3.65-8.14-8.16v-33.93
		c0-4.51,3.65-8.16,8.14-8.16h39.12C466.11,202.03,469.76,205.68,469.76,210.19z"/>
	<path class="st39" d="M365.18,235.12v26.79c0,3.56-2.88,6.44-6.44,6.44h-30.55c-3.56,0-6.44-2.88-6.44-6.44v-26.79
		c0-3.56,2.88-6.44,6.44-6.44h30.55C362.3,228.68,365.18,231.56,365.18,235.12z"/>
	<path class="st40" d="M314.78,280.65v23.24h-43.76v-23.24c0-3.56,2.88-6.44,6.43-6.44h30.89
		C311.9,274.21,314.78,277.09,314.78,280.65z"/>
	<path class="st41" d="M365.18,280.65v23.24h-43.43v-23.24c0-3.56,2.88-6.44,6.44-6.44h30.55
		C362.3,274.21,365.18,277.09,365.18,280.65z"/>
	<path class="st37" d="M468.3,196.41h-53.75c-0.86,0-1.56-0.7-1.56-1.56v-4.21c0-0.86,0.7-1.56,1.56-1.56h53.75
		c0.86,0,1.56,0.7,1.56,1.56v4.21C469.86,195.72,469.16,196.41,468.3,196.41z"/>
	<path class="st37" d="M468.3,266.82h-53.75c-0.86,0-1.56-0.7-1.56-1.56v-4.21c0-0.86,0.7-1.56,1.56-1.56h53.75
		c0.86,0,1.56,0.7,1.56,1.56v4.21C469.86,266.12,469.16,266.82,468.3,266.82z"/>
	<path class="st37" d="M412.99,304.15v-31.85c0-0.86,0.7-1.56,1.56-1.56h4.21c0.86,0,1.56,0.7,1.56,1.56v31.85
		c0,0.86-0.7,1.56-1.56,1.56h-4.21C413.68,305.71,412.99,305.01,412.99,304.15z"/>
	<path class="st42" d="M425.03,304.15v-31.85c0-0.86,0.7-1.56,1.56-1.56h4.21c0.86,0,1.56,0.7,1.56,1.56v31.85
		c0,0.86-0.7,1.56-1.56,1.56h-4.21C425.72,305.71,425.03,305.01,425.03,304.15z"/>
	<path class="st43" d="M437.06,304.15v-31.85c0-0.86,0.7-1.56,1.56-1.56h4.21c0.86,0,1.56,0.7,1.56,1.56v31.85
		c0,0.86-0.7,1.56-1.56,1.56h-4.21C437.76,305.71,437.06,305.01,437.06,304.15z"/>
	<path class="st44" d="M449.1,304.15v-31.85c0-0.86,0.7-1.56,1.56-1.56h4.21c0.86,0,1.56,0.7,1.56,1.56v31.85
		c0,0.86-0.7,1.56-1.56,1.56h-4.21C449.8,305.71,449.1,305.01,449.1,304.15z"/>
	<path class="st45" d="M461.14,304.15v-31.85c0-0.86,0.7-1.56,1.56-1.56h4.21c0.86,0,1.56,0.7,1.56,1.56v31.85
		c0,0.86-0.7,1.56-1.56,1.56h-4.21C461.84,305.71,461.14,305.01,461.14,304.15z"/>
</g>
</svg>
